<svg width="1024" height="562" viewBox="0 0 1024 562" fill="none" xmlns="http://www.w3.org/2000/svg">
<rect width="1024" height="562" fill="#FFFBFB"/>
<path opacity="0.3" d="M423.357 14.6686L456.487 32.8925V91.3813L423.357 73.1405V14.6686Z" fill="url(#paint0_linear_92_154)"/>
<path opacity="0.3" d="M406.996 39.188L440.126 57.4119V115.901L406.996 97.6599V39.188Z" fill="url(#paint1_linear_92_154)"/>
<path opacity="0.3" d="M390.634 65.7505L423.765 83.9745V142.463L390.634 124.222V65.7505Z" fill="url(#paint2_linear_92_154)"/>
<g clip-path="url(#clip0_92_154)">
<path d="M35.0273 451.428C35.0273 451.428 51.0351 419.311 74.4761 458.188C79.9605 467.288 83.9625 490.987 99.3926 492.002C99.3926 492.002 78.1022 509.045 64.3912 478.515C60.0969 468.922 53.7147 448.405 35.0273 451.428Z" fill="#004EDA"/>
<path d="M143.295 491.306C143.939 491.706 144.469 491.978 144.876 492.162C138.756 496.298 133.295 497.33 128.468 496.387C123.419 495.4 118.978 492.236 115.145 488.002C107.471 479.527 102.382 466.93 99.8576 459.736L99.8575 459.736C91.579 436.161 82.9934 427.042 76.3503 423.879C73.0205 422.294 70.2025 422.218 68.2042 422.551C67.6128 422.649 67.0946 422.783 66.6575 422.924C71.4301 416.141 76.2881 413.19 80.9444 412.697C85.9263 412.169 90.8278 414.438 95.3438 418.169C104.382 425.636 111.6 438.735 114.345 445.553L114.345 445.554C123.167 467.437 130.978 479.159 136.612 485.419C139.431 488.55 141.707 490.317 143.295 491.306Z" fill="white" stroke="#004EDA"/>
<path d="M92.5649 396.342C92.5649 396.342 109.77 385.862 130.239 432.839C130.239 432.839 169.681 524.81 188.967 479.165C188.967 479.165 171.462 479.165 152.483 435.203C144.869 417.598 124.901 362.567 92.5649 396.342Z" fill="#004EDA"/>
<path d="M138.841 387.885C138.841 387.885 160.194 395.327 159.603 426.095C164.258 424.566 169.254 425.172 173.523 427.785C173.523 427.785 173.543 390.59 138.841 387.885Z" fill="#004EDA"/>
<path d="M167.447 433.224C166.836 432.616 166.284 432.099 165.82 431.681C173.54 433.328 178.933 436.296 182.663 439.898C186.687 443.786 188.808 448.444 189.809 453.065C191.706 461.828 189.563 470.417 188.742 473.194C187.439 472.907 182.999 471.507 176.847 465.049C180.805 455.704 177.687 447.051 173.618 440.775C171.559 437.6 169.245 435.014 167.447 433.224Z" fill="white" stroke="#004EDA"/>
<path d="M33.4185 462.924C33.4234 460.598 34.1426 459.096 35.1644 458.116C36.203 457.119 37.6107 456.608 39.0734 456.385C40.5333 456.162 42.0048 456.233 43.1199 456.362C43.6304 456.421 44.0622 456.493 44.379 456.552C40.3261 466.316 41.9149 475.78 44.5278 482.815C45.8601 486.403 47.4623 489.369 48.7315 491.44C49.0844 492.015 49.4118 492.522 49.7007 492.954C41.7534 488.381 37.6911 481.264 35.609 475.088C34.4897 471.768 33.946 468.728 33.6802 466.518C33.5474 465.414 33.4841 464.518 33.4529 463.9C33.4374 463.591 33.4298 463.351 33.4256 463.188C33.4242 463.133 33.4232 463.089 33.4224 463.052C33.4219 463.033 33.4216 463.016 33.4212 463C33.4207 462.979 33.4201 462.959 33.4195 462.943C33.4193 462.939 33.419 462.932 33.4185 462.924Z" fill="white" stroke="#004EDA"/>
<path d="M76.7921 430.867C75.897 431.653 75.2815 432.932 74.8444 434.347C74.288 436.148 73.9766 438.319 73.8057 440.394C73.6345 442.475 73.6026 444.483 73.6133 445.97C73.6155 446.267 73.6193 446.543 73.6241 446.796C70.9414 443.239 68.2662 440.745 66.1838 439.1C65.0181 438.179 64.0381 437.524 63.3463 437.098C63.0348 436.906 62.7817 436.76 62.5963 436.658C63.4029 433.494 64.7008 431.603 66.152 430.514C67.6587 429.383 69.3943 429.068 71.0736 429.168C72.7578 429.269 74.359 429.786 75.5492 430.286C76.0479 430.496 76.4705 430.701 76.7921 430.867Z" fill="white" stroke="#004EDA"/>
<path d="M106.791 404.118C106.813 404.132 106.834 404.145 106.855 404.158C104.261 406.372 102.665 409.189 101.71 411.489C101.199 412.718 100.868 413.808 100.664 414.591C100.644 414.668 100.625 414.743 100.607 414.814C98.1525 411.974 94.6616 410.148 91.7223 409.015C90.1061 408.393 88.6402 407.974 87.5755 407.711C87.1526 407.606 86.7924 407.526 86.5106 407.467C88.2579 404.376 90.3497 402.625 92.4982 401.72C94.7885 400.755 97.1954 400.729 99.4108 401.14C101.627 401.552 103.628 402.397 105.08 403.145C105.805 403.518 106.389 403.865 106.791 404.118Z" fill="white" stroke="#004EDA"/>
</g>
<path opacity="0.3" d="M948.5 445.396V387.849L980.5 405.587V463.151L948.5 445.396Z" fill="url(#paint3_linear_92_154)" stroke="#004EDA"/>
<path opacity="0.3" d="M931.5 466.396V408.849L963.5 426.587V484.151L931.5 466.396Z" fill="url(#paint4_linear_92_154)" stroke="#004EDA"/>
<path opacity="0.3" d="M915.5 492.632V435.843L947.5 453.351V510.156L915.5 492.632Z" fill="url(#paint5_linear_92_154)" stroke="#004EDA"/>
<defs>
<linearGradient id="paint0_linear_92_154" x1="460.038" y1="19.8091" x2="432.71" y2="69.5012" gradientUnits="userSpaceOnUse">
<stop stop-color="#004EDA"/>
<stop offset="1" stop-color="white" stop-opacity="0"/>
</linearGradient>
<linearGradient id="paint1_linear_92_154" x1="443.677" y1="44.3284" x2="416.348" y2="94.0206" gradientUnits="userSpaceOnUse">
<stop stop-color="#004EDA"/>
<stop offset="1" stop-color="white" stop-opacity="0"/>
</linearGradient>
<linearGradient id="paint2_linear_92_154" x1="427.315" y1="70.891" x2="399.987" y2="120.583" gradientUnits="userSpaceOnUse">
<stop stop-color="#004EDA"/>
<stop offset="1" stop-color="white" stop-opacity="0"/>
</linearGradient>
<linearGradient id="paint3_linear_92_154" x1="984.537" y1="392.16" x2="956.993" y2="441.859" gradientUnits="userSpaceOnUse">
<stop stop-color="white"/>
<stop offset="1" stop-color="white" stop-opacity="0"/>
</linearGradient>
<linearGradient id="paint4_linear_92_154" x1="967.537" y1="413.16" x2="939.993" y2="462.859" gradientUnits="userSpaceOnUse">
<stop stop-color="white"/>
<stop offset="1" stop-color="white" stop-opacity="0"/>
</linearGradient>
<linearGradient id="paint5_linear_92_154" x1="951.537" y1="440.093" x2="924.54" y2="489.446" gradientUnits="userSpaceOnUse">
<stop stop-color="white"/>
<stop offset="1" stop-color="white" stop-opacity="0"/>
</linearGradient>
<clipPath id="clip0_92_154">
<rect width="157.99" height="111.869" fill="white" transform="translate(32.8838 385.576)"/>
</clipPath>
</defs>
</svg>
