<?xml version="1.0" encoding="utf-8"?>
<!-- Generator: Adobe Illustrator 24.0.0, SVG Export Plug-In . SVG Version: 6.00 Build 0)  -->
<svg version="1.1" id="Calque_1" xmlns="http://www.w3.org/2000/svg" xmlns:xlink="http://www.w3.org/1999/xlink" x="0px" y="0px"
	 viewBox="0 0 18 18" style="enable-background:new 0 0 18 18;" xml:space="preserve">
<style type="text/css">
	.st0{fill:#FFFFFF;}
	.st1{fill:#0C2A6A;}
</style>
<circle class="st0" cx="9" cy="9" r="9"/>
<path class="st1" d="M14.1,5.4L14.1,5.4c-0.4-0.3-1-0.3-1.4,0l-5.5,5.3L5.3,8.8c-0.4-0.3-1-0.3-1.4,0.1C3.7,9,3.6,9.2,3.6,9.5
	c0,0.2,0.1,0.4,0.3,0.6l2.6,2.4c0.2,0.2,0.4,0.3,0.7,0.3h0.1c0.2,0,0.5-0.1,0.6-0.3l6.3-5.9c0.2-0.2,0.3-0.4,0.3-0.7
	C14.4,5.8,14.3,5.5,14.1,5.4z"/>
</svg>
