<?xml version="1.0" encoding="utf-8"?>
<!-- Generator: Adobe Illustrator 24.0.0, SVG Export Plug-In . SVG Version: 6.00 Build 0)  -->
<svg version="1.1" id="Capa_1" xmlns="http://www.w3.org/2000/svg" xmlns:xlink="http://www.w3.org/1999/xlink" x="0px" y="0px"
	 viewBox="0 0 15 8" style="enable-background:new 0 0 15 8;" xml:space="preserve">
<style type="text/css">
	.st0{fill:#1E499B;}
</style>
<path class="st0" d="M0.2,7.7C0.4,7.9,0.7,8,1,8c0.2,0,0.4-0.1,0.5-0.3l6-5.7l6,5.7c0.3,0.3,1,0.3,1.3,0C14.9,7.6,15,7.4,15,7.1
	c0-0.2-0.1-0.5-0.2-0.6L8.3,0.3C8.3,0.3,8,0,7.5,0C7.1,0,7,0.1,6.8,0.2L0.1,6.6C-0.1,6.9-0.1,7.4,0.2,7.7z"/>
</svg>
