<?xml version="1.0" encoding="utf-8"?>
<!-- Generator: Adobe Illustrator 24.0.0, SVG Export Plug-In . SVG Version: 6.00 Build 0)  -->
<svg version="1.1" id="Capa_1" xmlns="http://www.w3.org/2000/svg" xmlns:xlink="http://www.w3.org/1999/xlink" x="0px" y="0px"
	 viewBox="0 0 24.3 14.1" style="enable-background:new 0 0 24.3 14.1;" xml:space="preserve">
<style type="text/css">
	.st0{fill:#FFFFFF;}
</style>
<g>
	<path class="st0" d="M24,6.2l-5.7-5.9c-0.4-0.5-1.2-0.5-1.7-0.1c-0.2,0.2-0.4,0.5-0.4,0.8c0,0.3,0.1,0.6,0.3,0.9l3.8,3.8H1.2
		C0.5,5.8,0,6.4,0,7c0,0.7,0.5,1.2,1.2,1.2h19.2l-3.8,3.9c-0.4,0.5-0.4,1.3,0.1,1.7c0.2,0.2,0.5,0.3,0.9,0.3c0.3,0,0.6-0.2,0.8-0.4
		L23.8,8c0.3-0.3,0.5-0.6,0.5-0.9c0-0.2,0-0.3-0.1-0.5C24.1,6.4,24,6.3,24,6.2z"/>
</g>
</svg>
