<svg width="72" height="45" viewBox="0 0 72 45" fill="none" xmlns="http://www.w3.org/2000/svg">
<g clip-path="url(#clip0_13_83)">
<path d="M0.976807 26.4893C0.976807 26.4893 8.27196 13.5701 18.9546 29.2084C21.454 32.869 23.2778 42.402 30.3097 42.8105C30.3097 42.8105 20.6071 49.6659 14.3587 37.385C12.4017 33.5265 9.49311 25.2733 0.976807 26.4893Z" fill="white"/>
<path d="M14.7646 15.4818C14.7646 15.4818 22.7735 10.9627 30.3065 29.8978C32.6092 35.6903 39.6316 50.301 51.5259 42.8201C51.5259 42.8201 45.3631 41.6297 37.3352 24.051C34.82 18.5361 24.1056 2.83394 14.7646 15.4818Z" fill="white"/>
<path d="M27.1982 4.33075C27.1982 4.33075 35.0389 0.114796 44.3672 19.0116C44.3672 19.0116 62.3419 56.0073 71.1309 37.6467C71.1309 37.6467 63.1538 37.6467 54.5043 19.9627C51.0344 12.8808 41.9345 -9.25542 27.1982 4.33075Z" fill="white"/>
<path d="M48.2876 0.928589C48.2876 0.928589 58.0187 3.92221 57.7491 16.2988C59.8708 15.6837 62.1474 15.9276 64.0927 16.9786C64.0927 16.9786 64.1022 2.01689 48.2876 0.928589Z" fill="white"/>
<path d="M65.3392 32.0106C68.806 35.2628 71.1468 35.4702 71.188 35.4734C71.8224 33.6766 75.8252 20.7128 59.7695 18.2011C59.7759 18.1915 69.0407 24.5745 65.3392 32.0106Z" fill="white"/>
<path d="M8.41152 43.7711C8.41152 43.7711 1.6524 36.2903 5.55689 28.4041C5.55689 28.4041 0.0157471 27.1786 0.0157471 31.1233C0.0316061 31.1233 -0.104784 40.1009 8.41152 43.7711Z" fill="white"/>
<path d="M18.8182 25.2732C18.8182 25.2732 18.4313 19.0818 20.4422 18.2009C20.4422 18.2009 14.7647 15.0732 13.2771 20.652C13.2771 20.652 16.1159 21.8743 18.8182 25.2732Z" fill="white"/>
<path d="M30.9852 12.2169C30.9852 12.2169 31.5244 9.22644 34.0936 7.45836C34.0936 7.45836 27.4709 3.23921 24.0897 8.95197C24.1056 8.95197 28.8221 9.63495 30.9852 12.2169Z" fill="white"/>
</g>
<defs>
<clipPath id="clip0_13_83">
<rect width="72" height="45" fill="white"/>
</clipPath>
</defs>
</svg>
