<svg width="65" height="72" viewBox="0 0 65 72" fill="none" xmlns="http://www.w3.org/2000/svg">
<circle cx="32.5" cy="39.4999" r="32.5" fill="white"/>
<path d="M55.8624 16.1924C55.8624 24.7652 47.3286 31.7148 36.803 31.7148C34.9153 31.7172 33.0354 31.489 31.2115 31.0363C29.8201 31.6926 26.6253 32.9522 21.2506 33.7726C20.7741 33.8436 20.412 33.3824 20.6002 32.9699C21.4436 31.1161 22.2059 28.6458 22.4346 26.3928C19.5162 23.6653 17.7437 20.0952 17.7437 16.1924C17.7437 7.61954 26.2775 0.669922 36.803 0.669922C47.3286 0.669922 55.8624 7.61954 55.8624 16.1924ZM29.6558 16.1924C29.6558 15.6042 29.4048 15.0402 28.958 14.6244C28.5112 14.2085 27.9052 13.9749 27.2733 13.9749C26.6415 13.9749 26.0355 14.2085 25.5887 14.6244C25.1419 15.0402 24.8909 15.6042 24.8909 16.1924C24.8909 16.7805 25.1419 17.3445 25.5887 17.7604C26.0355 18.1762 26.6415 18.4099 27.2733 18.4099C27.9052 18.4099 28.5112 18.1762 28.958 17.7604C29.4048 17.3445 29.6558 16.7805 29.6558 16.1924ZM39.1854 16.1924C39.1854 15.6042 38.9344 15.0402 38.4877 14.6244C38.0409 14.2085 37.4349 13.9749 36.803 13.9749C36.1712 13.9749 35.5652 14.2085 35.1184 14.6244C34.6716 15.0402 34.4206 15.6042 34.4206 16.1924C34.4206 16.7805 34.6716 17.3445 35.1184 17.7604C35.5652 18.1762 36.1712 18.4099 36.803 18.4099C37.4349 18.4099 38.0409 18.1762 38.4877 17.7604C38.9344 17.3445 39.1854 16.7805 39.1854 16.1924ZM46.3327 18.4099C46.9646 18.4099 47.5706 18.1762 48.0173 17.7604C48.4641 17.3445 48.7151 16.7805 48.7151 16.1924C48.7151 15.6042 48.4641 15.0402 48.0173 14.6244C47.5706 14.2085 46.9646 13.9749 46.3327 13.9749C45.7009 13.9749 45.0949 14.2085 44.6481 14.6244C44.2013 15.0402 43.9503 15.6042 43.9503 16.1924C43.9503 16.7805 44.2013 17.3445 44.6481 17.7604C45.0949 18.1762 45.7009 18.4099 46.3327 18.4099Z" fill="#003ECB"/>
</svg>
