<?xml version="1.0" encoding="utf-8"?>
<!-- Generator: Adobe Illustrator 25.2.0, SVG Export Plug-In . SVG Version: 6.00 Build 0)  -->
<svg version="1.1" id="Calque_1" xmlns="http://www.w3.org/2000/svg" xmlns:xlink="http://www.w3.org/1999/xlink" x="0px" y="0px"
	 viewBox="0 0 60 60" style="enable-background:new 0 0 60 60;" xml:space="preserve">
<style type="text/css">
	.st0{fill:#A1DAEA;}
	.st1{fill:#BEAF97;}
	.st2{fill:#A99576;}
	.st3{fill:#FDFDFD;}
	.st4{fill:#525353;}
	.st5{fill:#E0016C;}
	.st6{fill:#9D1D54;}
	.st7{fill:#535454;}
	.st8{fill:#E0DCDA;}
	.st9{fill:#88735F;}
	.st10{fill:#030303;}
	.st11{fill:#BBBDBE;}
	.st12{fill:#020201;}
	.st13{fill:#F7B038;}
	.st14{fill:#919494;}
	.st15{fill:#FFFFFF;}
</style>
<circle class="st0" cx="30" cy="30" r="30"/>
<path class="st1" d="M27.5,60C11,57.7,17,52.4,30,54c0,2,0,4,0,6C29.3,60,27.6,60,27.5,60z"/>
<path class="st2" d="M30,60c0-2,0-4,0-6C47.5,52.1,45.7,59.8,30,60z"/>
<path class="st3" d="M15.7,45.8c-9-7.1-8.3-20,6.2-15.4c4.2-0.5,10.8,3.7,12.4,0c0.8,0,1.5,0,2.3,0C32,44,34.1,42.8,25.4,38.5
	c1.7,2.5,4.7,3.8,6.5,6c-0.2,4.3,5.9,4,7.8,4.2C34,52.8,23.5,52.4,15.7,45.8z"/>
<path class="st4" d="M12.3,30.5c-1.2,2.2-1.8,4.6-2.1,7.2c-10.3-25.8,29-44,39.8-14.3c-0.1-0.3-9.6,0.5-9.9,2.4c-0.1,0-2-1.6-3-2.1
	C32.5,24.5,15.7,23.9,12.3,30.5z"/>
<path class="st5" d="M39.8,25.6c5.3,4.5,9.4,10.3,12.9,15.1c-3.2,3.5-10.8,3.2-15.7,2.6C39.3,38.6,43.6,29.8,39.8,25.6z"/>
<path class="st6" d="M37.1,43.4c5.1,0.3,10.8-0.7,15.6-2.7C49.2,45.1,36.2,54.7,37.1,43.4z"/>
<path class="st7" d="M17.4,47.3c0.6,0.3,1.1,0.7,1.6,1.1c-0.1,0-1,2.9-1.4,4.2c-1.9-0.4-1.5,1.3-1.7,2.6c-1.8,1.6-4-1.5-5.5-2.6
	C11.6,51.4,15.7,47.9,17.4,47.3z"/>
<path class="st7" d="M41.2,48.8c3.4-2.1,5.9,1.9,8.4,3.9C48.3,54,46.6,55,45,56c-1.8-0.9,0-3.9-2.6-3.4C42,51.3,41.6,50.1,41.2,48.8
	z"/>
<path class="st8" d="M49.9,23.3c0.5,1.8,2.9,7.8-0.3,7.2c-0.2-1.8-0.7-3.5-1.2-5.3c-0.5,1.7-0.9,3.7-1.2,5.3c-0.3,0-0.6,0-1,0
	c0-3.2,0-6.5,0-9.7C47.4,20.9,49.5,22.7,49.9,23.3z"/>
<path class="st3" d="M49.6,30.5c0.5,0,1,0,1.5,0c0,2.2-0.4,4.4-1.1,6.5c-1.3-1.6-3.8-5.1-5.2-6.5c0.4,0,2.2,0,2.5,0
	C47.1,33,49.7,33,49.6,30.5z"/>
<path class="st9" d="M42.4,52.6c2.5-0.5,1.1,2.4,1.9,3.8c-0.6,0.4-1.2,0.7-1.9,0.9c-0.3-0.9,0.3-3.1-0.7-3.3c-1.1,0-19.5,0-23.4,0
	c-1.1,0.3-0.4,2.3-0.7,3.3c-0.7-0.2-1.3-0.6-1.9-0.9c0.7-1.3-0.6-4.3,1.9-3.8C18.7,52.6,41.3,52.6,42.4,52.6z"/>
<path class="st10" d="M44.3,56.4c-0.2-0.4-0.2-0.8-0.2-1.2c0.4,0.2,0.7,0.4,0.9,0.8C44.8,56.1,44.5,56.2,44.3,56.4z"/>
<path class="st10" d="M15.9,55.2c0,0.4,0,0.8-0.2,1.2c-0.3-0.2-0.6-0.2-0.8-0.5C15.3,55.8,15.5,55.3,15.9,55.2z"/>
<path class="st11" d="M12.3,30.5c2.7-5.8,11.5-11.1,19.1-9.4c0.2,1.2-1.9,6.5-2.1,7.3C23.3,30.9,18.1,30.8,12.3,30.5z"/>
<path class="st12" d="M37.1,43.4c-0.3,3,1,3.9,2.6,5.3c-2.1,0.4-8.1-0.2-7.8-4.1c-1.7-2.2-4.8-3.4-6.5-6c2.4,0.4,6.7,5.5,7.8,1.5
	l0,0c3-3.4,7-6.7,7.7-11.5C43,34.1,38.5,38.5,37.1,43.4z"/>
<path class="st13" d="M40.9,28.6c0,3.7-6.5,10.2-7.7,11.5c2.4-5.2,4.2-10.7,3.9-16.5C39.1,24.6,40.7,26.3,40.9,28.6z"/>
<path class="st8" d="M36.6,30.5c-0.8,0-1.5,0-2.3,0c-0.7-2.6-2.9-5.5-2.9-9.4C37.5,22.1,37.7,24.7,36.6,30.5z"/>
<path class="st10" d="M39,52.6c-6,0-12,0-18,0c3-4.1,10,0.4,14.5-2C35.6,50.8,39.1,51.2,39,52.6z"/>
<path class="st10" d="M33.1,28c3.5,2.8-1.5,7.7-4.1,4C27.4,29.3,30.5,26.4,33.1,28z"/>
<path class="st1" d="M21.3,51.7c-0.2,0.3-0.2,0.6-0.3,0.9c-1.1,0-2.3,0-3.4,0c0.5-1.4,0.8-2.9,1.4-4.2
	C20.7,49.2,22.4,49.6,21.3,51.7z"/>
<path class="st14" d="M29.4,28.4c-0.9,1.1-1.1,2.3-0.4,3.6c-2.3-0.5-4.7-1-7-1.5C23,30,27.9,28.7,29.4,28.4z"/>
<path class="st1" d="M39,52.6c-1.2-2.6-0.7-3.7,2.2-3.9c0.4,1.3,0.8,2.6,1.2,3.9C41.3,52.6,40.2,52.6,39,52.6z"/>
<path class="st7" d="M38.2,49.8c0,0.7,0.4,1.2,0.5,1.9c-1-0.3-2.2-0.7-3.2-1C36.3,50.4,37.4,50.1,38.2,49.8z"/>
<path class="st7" d="M21.3,51.7c0.1-0.6,0.4-1.2,0.5-1.9c0.8,0.3,1.6,0.6,2.5,0.8C23.3,51,22.3,51.3,21.3,51.7z"/>
<path class="st12" d="M36.9,23.3c-6.1-4-14.3-3.1-19.9,1.4C18.9,15.5,33.4,14.4,36.9,23.3z"/>
<path class="st10" d="M49.1,22.4c-3.2-3.9-7.7-0.3-8.9,3.4C39.4,19.7,47.2,14.1,49.1,22.4z"/>
<path class="st11" d="M40.2,25.8C46,15.5,47,23,46.3,30.4C43.6,30.6,42.3,27.1,40.2,25.8z"/>
<path class="st14" d="M49.3,29c-0.6-0.7-1-0.4-1.8,0.1c-0.1-0.5,0.7-3.2,0.9-3.9C48.7,26.4,49.1,27.7,49.3,29z"/>
<path class="st14" d="M33.1,28c-1.2-0.7-2.6-0.5-3.7,0.4c0.4-1.4,1.7-5.5,2-6C31.9,24.1,33.1,27.8,33.1,28z"/>
<path class="st15" d="M31.4,28.1c1.2,0,1.3,1.8,0,1.8C30.2,30,30.2,28.2,31.4,28.1z"/>
<path class="st10" d="M49.6,30.5c0.1,2.5-2.5,2.5-2.4,0C47.2,27.9,49.7,27.8,49.6,30.5z"/>
<path class="st15" d="M48.8,29.3c0.1,0.9-0.9,0.9-0.8,0C48,28.5,48.9,28.5,48.8,29.3z"/>
</svg>
