<?xml version="1.0" encoding="utf-8"?>
<!-- Generator: Adobe Illustrator 25.2.0, SVG Export Plug-In . SVG Version: 6.00 Build 0)  -->
<svg version="1.1" id="Calque_1" xmlns="http://www.w3.org/2000/svg" xmlns:xlink="http://www.w3.org/1999/xlink" x="0px" y="0px"
	 viewBox="0 0 60 60" style="enable-background:new 0 0 60 60;" xml:space="preserve">
<style type="text/css">
	.st0{fill:#9C5D90;}
	.st1{fill:#FFFFFF;}
</style>
<path class="st0" d="M37,41.9c0.7,2,1.6,3.7,2.2,5.6c-3.3-1.8-6.5-3.6-9.8-5.4c-7.7-0.8-15.8-0.1-23.6-0.3c-2.8,0-5.5-2.4-5.5-5.3
	c0.1-5-1.2-18.9,0.8-21.8c1-1.5,2.5-2.1,4.3-2.1c16.7,0.1,33.7-0.3,50.4,0.1c2.5,0.6,4.3,2.9,4.2,5.4c0,6.1,0,12.2,0,18.3
	c0,2.8-2.5,5.4-5.5,5.4C48.7,41.8,42.9,41.7,37,41.9z"/>
<path class="st1" d="M15.9,28.2c-2.5,4.2-7.3,18.4-10,5.9C4.7,29.8,4,25.3,3.2,20.9c-0.1-1.2-0.7-2.5,0.2-3.5
	c0.5-0.6,1.4-0.8,2.2-0.7c1.4,0.2,1.5,1.6,1.6,2.7c0.7,3.9,1.3,7.8,2.3,11.7c2.1-3.5,3.6-7.4,6-10.8c0.9-0.9,2.7-0.6,3,0.7
	c0.8,2.9,1.2,6,2.5,8.7c0.5-3.6,0.9-7.1,2.1-10.5c0.3-0.9,0.7-1.7,1.1-2.5c0.9-1.7,3.6-1,3.9,0.7c0.2,1.4-0.8,2.5-1.2,3.8
	c-1.1,3.7-1.6,7.6-2,11.5c-0.1,1.1-0.1,2.2-0.1,3.2c0,0.9,0.2,1.9-0.4,2.7C21,42,16.5,30.6,15.9,28.2z"/>
<path class="st1" d="M57.1,25.4c0-3.4-2.2-6.9-5.9-7.1C45.7,17.9,43,24,43,28.7c0,2.4,0.7,5.3,2.9,6.8c2.3,1.6,5.7,1.4,7.8-0.6
	C56.1,32.4,57.2,28.9,57.1,25.4z M51.7,30.6c-4.5,5.7-6.2-4.2-2.4-7.4c2.2-2.1,3.6,1.1,3.6,3C52.8,27.8,52.5,29.3,51.7,30.6z"/>
<path class="st1" d="M41.7,25.1c-0.1-6.3-7.5-9.5-11.5-4.1c-2.6,3.3-3.5,8.4-1.6,12.4c1.9,3.9,7.4,4.3,10,1.2
	C41,32,42,28.5,41.7,25.1z M36.3,30.7c-0.7,1.2-2.7,2.4-3.6,0.8c-1.5-2.5-0.8-5.8,0.9-8c1.9-2.3,3.7-0.5,3.9,1.8
	C37.7,27.3,37.3,29.2,36.3,30.7z"/>
</svg>
